<?xml version="1.0" encoding="UTF-8"?>
<svg version="1.1" xmlns="http://www.w3.org/2000/svg" width="225" height="225">
<path d="M0 0 C74.25 0 148.5 0 225 0 C225 74.25 225 148.5 225 225 C150.75 225 76.5 225 0 225 C0 150.75 0 76.5 0 0 Z " fill="#FDFEFD" transform="translate(0,0)"/>
<path d="M0 0 C7.02305029 5.74088886 13.3234361 12.19693456 19.71484375 18.6171875 C20.93773316 19.84194489 22.1608457 21.06647953 23.38417053 22.290802 C26.58385956 25.49428634 29.78053248 28.70076366 32.9765625 31.90789795 C36.246212 35.18782616 39.5187384 38.46488126 42.79101562 41.7421875 C49.19681119 48.15866765 55.59942049 54.578317 62 61 C60.30413874 64.63303084 58.26199512 66.94549046 55.375 69.75 C54.55773437 70.54921875 53.74046875 71.3484375 52.8984375 72.171875 C52.27195312 72.77515625 51.64546875 73.3784375 51 74 C45.04021364 69.08072341 39.66584965 63.71702566 34.26953125 58.19140625 C32.87513424 56.77673382 31.48072239 55.36207564 30.08542156 53.94829464 C26.66926754 50.48661729 23.2574332 47.0209039 19.86157227 43.53930664 C17.9443997 41.57434217 16.02084762 39.61608065 14.08952332 37.6650238 C12.27536443 35.83203216 10.4709295 33.98935632 8.67720032 32.1363678 C7.8592247 31.31478683 7.04124908 30.49320587 6.19848633 29.64672852 C5.48235672 28.91647964 4.76622711 28.18623077 4.02839661 27.43385315 C2.14665616 25.81200051 2.14665616 25.81200051 0.03562927 25.99533081 C-2.7635408 27.3768397 -4.56913366 29.21082023 -6.76855469 31.42797852 C-7.22755661 31.88654236 -7.68655853 32.3451062 -8.1594696 32.81756592 C-9.670827 34.33100888 -11.17128789 35.85479014 -12.671875 37.37890625 C-13.7192536 38.43188162 -14.76729769 39.48419543 -15.815979 40.53587341 C-18.57136295 43.30269969 -21.31761824 46.0784171 -24.06207275 48.8560791 C-26.86535382 51.69007411 -29.67716993 54.51557253 -32.48828125 57.34179688 C-38.00057896 62.88624795 -43.50326105 68.44011909 -49 74 C-50.1065941 73.06122074 -51.21178799 72.12079084 -52.31640625 71.1796875 C-52.93201416 70.65616699 -53.54762207 70.13264648 -54.18188477 69.59326172 C-56.57236585 67.4984209 -58.78679163 65.28027529 -61 63 C-59.37641304 58.90379366 -56.43319604 56.16552101 -53.35693359 53.12988281 C-52.49330452 52.26581566 -52.49330452 52.26581566 -51.61222839 51.3842926 C-49.71233463 49.48578963 -47.80546009 47.59446478 -45.8984375 45.703125 C-44.57806566 44.38648418 -43.25813536 43.06940043 -41.93862915 41.75189209 C-38.46765724 38.28854963 -34.9907207 34.83125582 -31.51251221 31.37518311 C-27.96305615 27.8462002 -24.41926799 24.3115358 -20.875 20.77734375 C-13.92220537 13.84598692 -6.96309691 6.92100623 0 0 Z " fill="#007E00" transform="translate(112,88)"/>
<path d="M0 0 C7.02305029 5.74088886 13.3234361 12.19693456 19.71484375 18.6171875 C20.93773316 19.84194489 22.1608457 21.06647953 23.38417053 22.290802 C26.58385956 25.49428634 29.78053248 28.70076366 32.9765625 31.90789795 C36.246212 35.18782616 39.5187384 38.46488126 42.79101562 41.7421875 C49.19681119 48.15866765 55.59942049 54.578317 62 61 C60.30413874 64.63303084 58.26199512 66.94549046 55.375 69.75 C54.55773437 70.54921875 53.74046875 71.3484375 52.8984375 72.171875 C52.27195312 72.77515625 51.64546875 73.3784375 51 74 C45.04021364 69.08072341 39.66584965 63.71702566 34.26953125 58.19140625 C32.87513424 56.77673382 31.48072239 55.36207564 30.08542156 53.94829464 C26.66926754 50.48661729 23.2574332 47.0209039 19.86157227 43.53930664 C17.9443997 41.57434217 16.02084762 39.61608065 14.08952332 37.6650238 C12.27536443 35.83203216 10.4709295 33.98935632 8.67720032 32.1363678 C7.8592247 31.31478683 7.04124908 30.49320587 6.19848633 29.64672852 C5.48235672 28.91647964 4.76622711 28.18623077 4.02839661 27.43385315 C2.14665616 25.81200051 2.14665616 25.81200051 0.03562927 25.99533081 C-2.7635408 27.3768397 -4.56913366 29.21082023 -6.76855469 31.42797852 C-7.22755661 31.88654236 -7.68655853 32.3451062 -8.1594696 32.81756592 C-9.670827 34.33100888 -11.17128789 35.85479014 -12.671875 37.37890625 C-13.7192536 38.43188162 -14.76729769 39.48419543 -15.815979 40.53587341 C-18.57136295 43.30269969 -21.31761824 46.0784171 -24.06207275 48.8560791 C-26.86535382 51.69007411 -29.67716993 54.51557253 -32.48828125 57.34179688 C-38.00057896 62.88624795 -43.50326105 68.44011909 -49 74 C-50.1065941 73.06122074 -51.21178799 72.12079084 -52.31640625 71.1796875 C-52.93201416 70.65616699 -53.54762207 70.13264648 -54.18188477 69.59326172 C-56.57236585 67.4984209 -58.78679163 65.28027529 -61 63 C-59.37641304 58.90379366 -56.43319604 56.16552101 -53.35693359 53.12988281 C-52.49330452 52.26581566 -52.49330452 52.26581566 -51.61222839 51.3842926 C-49.71233463 49.48578963 -47.80546009 47.59446478 -45.8984375 45.703125 C-44.57806566 44.38648418 -43.25813536 43.06940043 -41.93862915 41.75189209 C-38.46765724 38.28854963 -34.9907207 34.83125582 -31.51251221 31.37518311 C-27.96305615 27.8462002 -24.41926799 24.3115358 -20.875 20.77734375 C-13.92220537 13.84598692 -6.96309691 6.92100623 0 0 Z " fill="#007E00" transform="translate(112,38)"/>
</svg>
