<?xml version="1.0" encoding="UTF-8"?>
<svg version="1.1" xmlns="http://www.w3.org/2000/svg" width="256" height="256">
<path d="M0 0 C84.48 0 168.96 0 256 0 C256 84.48 256 168.96 256 256 C171.52 256 87.04 256 0 256 C0 171.52 0 87.04 0 0 Z " fill="#424242" transform="translate(0,0)"/>
<path d="M0 0 C0.66 0 1.32 0 2 0 C4.87200752 8.43919808 7.74076107 16.87949304 10.60533142 25.32121849 C11.93547461 29.24073635 13.26674842 33.15986265 14.60058594 37.078125 C15.88703876 40.85732582 17.17054791 44.63751439 18.45199585 48.41841507 C18.94215522 49.86290919 19.433386 51.30704019 19.9256897 52.7508049 C20.61343025 54.76831198 21.29739837 56.78706015 21.98046875 58.80615234 C22.37129639 59.95642914 22.76212402 61.10670593 23.16479492 62.2918396 C24 65 24 65 24 67 C24.75466553 66.99476318 25.50933105 66.98952637 26.28686523 66.98413086 C49.87271552 66.84509033 73.42428735 67.33529784 97 68 C94.18352079 70.89076533 91.43521852 73.58112932 88.13671875 75.91015625 C87.42322266 76.41869141 86.70972656 76.92722656 85.97460938 77.45117188 C85.21986328 77.98291016 84.46511719 78.51464844 83.6875 79.0625 C82.06551627 80.2188047 80.44443953 81.37638259 78.82421875 82.53515625 C78.01259277 83.11539551 77.2009668 83.69563477 76.36474609 84.29345703 C72.87269173 86.81353343 69.4342984 89.40204457 66 92 C57.43243763 98.47053809 48.72429519 104.7431207 40 111 C41.82652739 119.02710722 44.15424309 126.82194429 46.66650391 134.65551758 C48.56868997 140.59648776 50.36476689 146.55993559 52.09179688 152.55395508 C53.22345592 156.45204438 54.41746453 160.32170655 55.6796875 164.1796875 C55.96134766 165.04529297 56.24300781 165.91089844 56.53320312 166.80273438 C57.0841475 168.48624655 57.64246352 170.16736851 58.20898438 171.84570312 C60.11045282 177.66864155 60.11045282 177.66864155 59 181 C57.17178289 179.67962098 55.34357098 178.35923476 53.51538086 177.03881836 C51.89909269 175.87154498 50.28271661 174.70439331 48.66625977 173.53735352 C44.57366904 170.5823616 40.48221236 167.62584311 36.39453125 164.6640625 C19.50446553 149.78485839 19.50446553 149.78485839 0.73828125 141.0703125 C-2.96614448 142.32802052 -5.75616831 144.50822373 -8.8125 146.875 C-10.15730791 147.88877318 -11.50371279 148.90043077 -12.8515625 149.91015625 C-13.54024414 150.42723145 -14.22892578 150.94430664 -14.93847656 151.47705078 C-18.13300022 153.83700325 -21.40414346 156.07855759 -24.6875 158.3125 C-31.92701328 163.2468046 -39.10488123 168.26518472 -46.26245117 173.31762695 C-50.10291917 176.01838288 -53.91699163 178.67160419 -58 181 C-57.31020024 175.45437302 -55.56603443 170.44061854 -53.75 165.1875 C-51.30399347 157.99394924 -48.99954114 150.79193319 -46.92822266 143.48217773 C-45.76323014 139.4296749 -44.48289077 135.43756845 -43.1015625 131.453125 C-42.77478516 130.50630859 -42.44800781 129.55949219 -42.11132812 128.58398438 C-41.46698154 126.73260438 -40.81245398 124.88472788 -40.14648438 123.04101562 C-39.85322266 122.19732422 -39.55996094 121.35363281 -39.2578125 120.484375 C-38.9911377 119.73897461 -38.72446289 118.99357422 -38.44970703 118.22558594 C-37.88329429 115.42242711 -38.07770517 113.70910542 -39 111 C-40.72959888 109.09304294 -40.72959888 109.09304294 -43.0234375 107.50390625 C-43.87010986 106.87000977 -44.71678223 106.23611328 -45.58911133 105.58300781 C-46.50845459 104.91624023 -47.42779785 104.24947266 -48.375 103.5625 C-49.79171997 102.5101416 -49.79171997 102.5101416 -51.23706055 101.43652344 C-54.14870802 99.27801822 -57.07339171 97.13815904 -60 95 C-61.68706474 93.75508007 -63.37331037 92.5090491 -65.05859375 91.26171875 C-68.18353135 88.95158204 -71.31239854 86.64696345 -74.4453125 84.34765625 C-79.03695063 80.97551771 -83.61875574 77.59059652 -88.1875 74.1875 C-88.87755127 73.67735352 -89.56760254 73.16720703 -90.27856445 72.64160156 C-91.87099684 71.45226713 -93.43857352 70.22975796 -95 69 C-95 68.67 -95 68.34 -95 68 C-59.36 67.505 -59.36 67.505 -23 67 C-16.55166831 47.94384382 -16.55166831 47.94384382 -10.10620117 28.88671875 C-9.2935603 26.4869442 -8.48082262 24.08720242 -7.66796875 21.6875 C-7.25148071 20.45451172 -6.83499268 19.22152344 -6.40588379 17.95117188 C-4.36435431 11.92814299 -2.28109916 5.93666543 0 0 Z " fill="#FCFCFB" transform="translate(127,38)"/>
</svg>
